<?xml version="1.0" encoding="utf-8"?>
<!-- Generator: Adobe Illustrator 22.0.1, SVG Export Plug-In . SVG Version: 6.00 Build 0)  -->
<svg version="1.1" id="_x32_b8e3008-3352-469a-8231-8c916447ef06"
	 xmlns="http://www.w3.org/2000/svg" xmlns:xlink="http://www.w3.org/1999/xlink" x="0px" y="0px" viewBox="0 0 1037.9 772.3"
	 style="enable-background:new 0 0 1037.9 772.3;" xml:space="preserve">
<style type="text/css">
	.st0{opacity:0.1;fill:#C3B15F;enable-background:new    ;}
	.st1{fill:none;stroke:#535461;stroke-width:2;stroke-miterlimit:10;}
	.st2{fill:#C3B15F;}
	.st3{fill:url(#SVGID_1_);}
	.st4{fill:#DDE1EC;}
	.st5{opacity:0.3;fill:#535461;enable-background:new    ;}
	.st6{opacity:0.1;}
	.st7{fill:#535461;}
	.st8{fill:url(#SVGID_2_);}
	.st9{fill:#F8BDC5;}
	.st10{fill:#5E52AD;}
	.st11{opacity:3.000000e-02;}
	.st12{fill:#5D3E53;}
	.st13{fill:#85555C;}
	.st14{fill:#ED677B;}
	.st15{opacity:5.000000e-02;enable-background:new    ;}
	.st16{opacity:0.1;enable-background:new    ;}
	.st17{fill:none;stroke:#535461;stroke-miterlimit:10;}
	.st18{fill:#A8A8A8;}
	.st19{opacity:0.2;enable-background:new    ;}
</style>
<title>time management</title>
<path class="st0" d="M104.4,77.3c-6.5,2.7-13.1,6.1-16.6,12.1c-3.8,6.4-3.3,14.3-2.6,21.6c6.1,63.9,22.2,131.9-5.6,189.8
	c-13.5,28.1-36,50.6-53.9,76.1C7.7,402.5-5.8,434.4,2.5,464.4c10.2,36.7,48.1,57,73.6,85.2c16.7,18.5,28.5,40.9,44.1,60.3
	s37,36.5,61.9,37.7c35.8,1.7,65-29.3,100.1-36.5c36-7.3,72.3,11.3,101.4,33.7s55.7,49.5,89.8,63.4c37.6,15.4,79.9,13.1,119.4,22.3
	c36,8.5,69.1,26.4,104.9,36s77.6,9,105.3-15.5c36.1-32,33.3-89,56.3-131.3c21.4-39.3,63.3-62.8,91.5-97.6
	c50.8-62.6,49.1-158.2,6-226.3s-121.2-109.3-201-120c-36-4.8-73.1-4.2-107.7-15.2C555.6,131.3,500.5,26,405.9,4.1
	C345.8-9.9,287.3,14.2,236.1,43.9C191.7,69.6,150.7,58.1,104.4,77.3z"/>
<path class="st1" d="M194.7,283.8c0,0-34.1,32.2-70.8,33.2c-15.4,0.3-30.2,5.6-42.4,15.1c-5.7,4.5-11,9.6-15.8,15.1"/>
<path class="st2" d="M42.6,347.9c4.9-2.5,23.7-0.8,23.7-0.8s-9.7,16.1-14.7,18.6c-4.8,2.8-10.9,1.2-13.7-3.5
	c-2.8-4.8-1.2-10.9,3.5-13.7C41.8,348.3,42.2,348.1,42.6,347.9L42.6,347.9z"/>
<path class="st2" d="M62.4,319.4c5.5,0.6,20.4,12.2,20.4,12.2s-17,8.3-22.4,7.7c-5.5-0.8-9.2-5.9-8.4-11.4
	C52.7,322.8,57.2,319.1,62.4,319.4z"/>
<path class="st2" d="M109.3,296.4c4.4,3.3,11.4,20.8,11.4,20.8s-18.8-1.4-23.3-4.7c-4.3-3.5-5-9.8-1.5-14.1
	C99.2,294.4,105,293.5,109.3,296.4z"/>
<path class="st2" d="M148.6,287c4.9,2.5,14.8,18.6,14.8,18.6s-18.8,1.8-23.7-0.7c-5.1-2.2-7.4-8.1-5.2-13.2
	c2.2-5.1,8.1-7.4,13.2-5.2C148,286.6,148.3,286.8,148.6,287L148.6,287z"/>
<path class="st2" d="M93.2,349.8c1.6-5.3-3.2-23.5-3.2-23.5s-14.3,12.3-15.9,17.6c-1.9,5.2,0.8,10.9,6,12.8c5.2,1.9,10.9-0.8,12.8-6
	C93,350.4,93.1,350.1,93.2,349.8z"/>
<path class="st2" d="M139.1,338.1c0-5.5-10.1-21.5-10.1-21.5s-9.9,16-9.9,21.5c0,5.5,4.5,10,10,10
	C134.7,348.2,139.1,343.7,139.1,338.1L139.1,338.1L139.1,338.1z"/>
<path class="st2" d="M182.2,320.8c0.9-5.4-6.3-22.9-6.3-22.9s-12.5,14.1-13.4,19.6c-0.7,5.5,3.2,10.5,8.7,11.1
	C176.4,329.2,181.1,325.8,182.2,320.8L182.2,320.8z"/>
<path class="st1" d="M239,198.5c0,0-41.1-22.6-53.3-57.2c-5-14.5-14.6-27.1-27.4-35.7c-6.1-4-12.5-7.5-19.2-10.4"/>
<path class="st2" d="M131.3,73.5c3.9,3.9,8.1,22.3,8.1,22.3s-18.4-4.3-22.3-8.2c-3.7-4.1-3.4-10.4,0.7-14.1
	C121.7,70,127.5,70.1,131.3,73.5z"/>
<path class="st2" d="M164.5,83.6c1.1,5.4-5.3,23.1-5.3,23.1s-13.1-13.6-14.2-19c-1.4-5.3,1.8-10.8,7.2-12.2
	c5.3-1.4,10.8,1.8,12.2,7.2C164.4,82.9,164.5,83.2,164.5,83.6L164.5,83.6z"/>
<path class="st2" d="M200.8,121.1c-1.7,5.2-16.3,17.3-16.3,17.3s-4.4-18.3-2.7-23.6c1.7-5.2,7.4-8.1,12.7-6.3
	S202.6,115.9,200.8,121.1L200.8,121.1L200.8,121.1z"/>
<path class="st2" d="M221.9,155.7c-0.8,5.4-13.1,19.8-13.1,19.8s-7.5-17.3-6.6-22.8c0.6-5.5,5.5-9.5,11-8.9c5.5,0.6,9.5,5.5,8.9,11
	C222,155,222,155.4,221.9,155.7L221.9,155.7z"/>
<path class="st2" d="M145.1,122.2c5.5-0.1,21.4-10.2,21.4-10.2s-16.1-9.8-21.6-9.7c-5.5,0.1-9.9,4.6-9.9,10.1
	C135,117.9,139.6,122.3,145.1,122.2L145.1,122.2L145.1,122.2z"/>
<path class="st2" d="M170.2,162.4c5.2-1.7,17.4-16.2,17.4-16.2s-18.3-4.5-23.6-2.8c-5.3,1.5-8.4,7-6.9,12.4c1.5,5.3,7,8.4,12.4,6.9
	C169.8,162.5,170,162.4,170.2,162.4L170.2,162.4z"/>
<path class="st2" d="M200,198c5.5-0.8,19.8-13,19.8-13s-17.3-7.6-22.7-6.8c-5.5,0.6-9.5,5.5-8.9,11s5.5,9.5,11,8.9
	C199.5,198.1,199.8,198.1,200,198L200,198z"/>
<linearGradient id="SVGID_1_" gradientUnits="userSpaceOnUse" x1="521.94" y1="27.59" x2="521.94" y2="751.59" gradientTransform="matrix(1 0 0 -1 0 774)">
	<stop  offset="0" style="stop-color:#808080;stop-opacity:0.25"/>
	<stop  offset="0.54" style="stop-color:#808080;stop-opacity:0.12"/>
	<stop  offset="1" style="stop-color:#808080;stop-opacity:0.1"/>
</linearGradient>
<circle class="st3" cx="521.9" cy="384.4" r="362"/>
<circle class="st2" cx="521.9" cy="384.4" r="356"/>
<circle class="st4" cx="521.9" cy="384.4" r="283"/>
<rect x="513.9" y="151.4" class="st5" width="16" height="250"/>
<g class="st6">
	<rect x="538.9" y="378.4" width="226" height="20"/>
	<rect x="435.8" y="269.4" transform="matrix(0.4639 -0.8859 0.8859 0.4639 -70.7616 582.4201)" width="20" height="160.5"/>
	<circle cx="521.9" cy="388.4" r="30"/>
</g>
<rect x="538.9" y="374.4" class="st7" width="226" height="20"/>
<rect x="435.9" y="265.4" transform="matrix(0.4639 -0.8859 0.8859 0.4639 -67.2031 580.3463)" class="st7" width="20" height="160.5"/>
<circle class="st7" cx="521.9" cy="384.4" r="30"/>
<g class="st6">
	<path d="M260.9,418.4c0-156.3,126.7-283,283-283c88.9-0.1,172.7,41.7,226.2,112.8c-48.2-87.5-141.2-146.8-248.2-146.8
		c-156.3,0-283,126.7-283,283c-0.1,61.4,19.9,121.2,56.9,170.2C272.8,512.9,260.9,466,260.9,418.4z"/>
</g>
<linearGradient id="SVGID_2_" gradientUnits="userSpaceOnUse" x1="748.4765" y1="177.7456" x2="748.4765" y2="594.7397" gradientTransform="matrix(1 0 0 -1 -81.08 710.14)">
	<stop  offset="0" style="stop-color:#808080;stop-opacity:0.25"/>
	<stop  offset="0.54" style="stop-color:#808080;stop-opacity:0.12"/>
	<stop  offset="1" style="stop-color:#808080;stop-opacity:0.1"/>
</linearGradient>
<path class="st8" d="M783.4,176.2c-3.4-3.2-31.6,18-31.6,18s-10.1,1.8-7.7,8.8s-10.5,45.6-10.5,45.6l-5.3-7.4
	c0.5-8.6-1.9-14.8-4.2-18.6c-0.2-0.3-0.4-0.6-0.6-0.9l0.9-0.3c-0.3-4.7-7.9-11.9-11.9-15.4c0-0.5,0-1,0-1.5c0.3-5.6,2.5-11.6,0-16.7
	c-2.8-5.8-11.2-8.8-11.8-15.2c-0.4-3.8,2.2-7.3,3.3-10.9c2.7-8.8-2.9-17.8-8.3-25.4c-1.8-2.8-4.1-5.4-6.6-7.6
	c-2.4-1.8-5.1-3.2-7.9-4.2c-7.9-3.2-16-4.8-24.2-7c-7.8-2.1-15-3.1-23-0.5c-1.9,0.5-3.6,1.5-5,2.9c-1.9,2.1-2.1,5.1-3.4,7.7
	c-2,4.1-6.3,6.5-10.1,9.1s-7.6,6.2-7.7,10.7c0,6.4,7.3,10.4,9.7,16.4c2.3,5.5,0,11.7-1.3,17.6c-0.5,1.9-0.6,3.9-0.2,5.8
	c0.5,1.4,1.3,2.7,2.2,3.9c1.5,2,3.1,3.9,4.7,5.8l-0.7,0.3c-13.4-1.4-22,15.7-22,15.7c0.6,0.1,1.2,0.3,1.8,0.5l-0.6,0.7
	c-4.1,5.3-7.4,11.1-9.8,17.2l-11,14.7c0,0-2.4-36.9,3.4-45.1s-5.3-13.4-5.3-13.4s-24-26.7-27.3-24.4s8.2,31.3,18.2,35.9
	c0,0,1,9.2-1,15.2c-1.2,3.8-7.7,43.8-7.7,43.8s-5.8,33.6,20.6,17c17.1-10.8,28.2-29.3,33.8-41c0.4-0.8,0.8-1.6,1.1-2.4
	c0.3,1.2,0.4,2.5,0.5,3.8l1,38.5c0.3,9.5-1.8,19-6.1,27.5L600.3,325l1.3,0.4l-0.8,1.1c-7.7,11.4-20.9,37,6.2,50l36,4.6l-1.9,9.2
	c0,0-14.9,28.1-19.2,47.5c-2.7,11.8-6.9,23.3-12.5,34.1l1.1,0.6c-0.2,0.3-0.5,0.5-0.7,0.8c-2.2,2.5-3.6,5.5-4.2,8.7l-4.9,6.9
	c0,0-1.9,28.6,1.9,35.5c2.1,3.8,9.1,6.2,15,7.6c8.8,2.1,15.9-7,11.2-14.5l-0.1-0.1h-0.1c-1-4.7-4.1-19.1-3.1-24.6
	c0.3-1.6,0.5-3.1,0.7-4.7c0.2-2.1,0.9-4.1,1.9-5.9c0.2-0.3,0.3-0.6,0.5-0.9l0.5,0.2c1.6,0.7,3.2,1.3,4.7,1.9c-2.3,2.1-4,6.5-2,15.6
	c0,0,0.2,22.7,1.9,26.3s21.1,8.3,24.5,4.6s-2.2-16.4-2.2-16.4l-0.2,0.1c-1.1-7.3-2.5-20.5,0.9-25.7c1.4-2.1,2.7-4.3,3.9-6.3l0.7-1.3
	l0,0c6.3,3.1,12.9,5.5,16.5,3.8c0,0,15.8-36.9,14.9-41.5c-1-4.6,24.5-56.7,24.5-56.7s21.6-24-4.8-40.5c-8.4-5.3-14.5-8.8-18.9-11.2
	l-3.7-19.4c-1.9-10.2-1.6-20.6,1-30.7l4-15.3l0,0l0.3-1.3c0,0,10.1-20.7,9.6-30.4c0-0.8,0-1.5,0.3-2.2c0.1,0.5,0.2,0.9,0.4,1.4
	c2.6,10.1,6.1,19.9,10.4,29.4c7.7,17.3,19,15.9,25.2,13.4c2.7-1,4.7-3.4,5.3-6.2c2.2-10.7,8.4-40.8,8.8-49.1
	c0.3-6.5,1.2-13,2.4-19.4C773.4,195.6,786.8,179.5,783.4,176.2z"/>
<path class="st9" d="M666,471.5c0,0-2.1,4.2-5,9.3c-1.1,2-2.4,4.2-3.7,6.2c-4.6,7.3,0,30.6,0,30.6l-10,1.4l-10-5l-1.8-16.9v-12.4
	l11.4-12.8l5-5.5L666,471.5z"/>
<g class="st6">
	<path d="M666,471.5c0,0-2.1,4.2-5,9.3c-4.4-2.4-8.7-5-12.8-7.9l-0.9-0.6l-0.5-0.3l5-5.5L666,471.5z"/>
</g>
<path class="st10" d="M714.9,386c0,0-24.2,51.6-23.3,56.2s-14.2,41.1-14.2,41.1c-3.4,1.6-9.8-0.7-15.7-3.8c-4.5-2.4-8.8-5.1-13-8
	l-0.9-0.6l-0.5-0.4l39.7-110.1l-35.2-25.8l-2.6-1.9l-15.7-11.6l48,8.7c0,0,1.7-0.2,10.5,4.7c4.2,2.4,10.1,5.9,18.3,11.3
	C735.5,362.3,714.9,386,714.9,386z"/>
<g class="st11">
	<path d="M714.9,386c0,0-24.2,51.6-23.3,56.2s-14.2,41.1-14.2,41.1c-3.4,1.6-9.8-0.7-15.7-3.8c-4.5-2.4-8.8-5.1-13-8l-0.9-0.6
		l-0.5-0.4l39.7-110.1l-35.2-25.8l-2.6-1.9l-15.7-11.6l48,8.7c0,0,1.7-0.2,10.5,4.7c4.2,2.4,10.1,5.9,18.3,11.3
		C735.5,362.3,714.9,386,714.9,386z"/>
</g>
<path class="st12" d="M641.4,480.6c0,0-11.9-1.8-7.8,17.4c0,0,0.2,22.5,1.8,26s20.1,8.2,23.3,4.6s-2.1-16.2-2.1-16.2
	s-13.5,9.8-17.1-0.7S641.4,480.6,641.4,480.6z"/>
<path class="st9" d="M633.1,476.9c-1.3,1.2-2.4,2.7-3.1,4.3c-0.9,1.8-1.5,3.8-1.8,5.9c-0.1,1.6-0.4,3.1-0.6,4.7
	c-1.1,6.5,3.2,25.8,3.2,25.8l-17.4,2.7l-6.4-6.8l-1.4-15.1c1.7-5.2,2.6-10.6,2.7-16c0-3.9,2-7.4,4-10c1.4-1.7,2.9-3.2,4.6-4.6
	C617.1,467.8,636.8,473.7,633.1,476.9z"/>
<g class="st6">
	<path d="M633.1,476.9c-1.3,1.2-2.4,2.7-3.1,4.3c-7.1-3.2-14.6-7.3-17.3-8.8l-0.2-0.1c1.4-1.7,2.9-3.2,4.6-4.6
		C617.1,467.8,636.8,473.7,633.1,476.9z"/>
</g>
<path class="st10" d="M689.3,372.3c0,0-11.4,21.5-18.7,39.3c-4.8,11.7-14.7,39.6-21,57.3l-0.9,2.6c-2.8,7.8-4.6,13.2-4.6,13.2
	c-1.2,0-2.4-0.2-3.6-0.5c-1.1-0.3-2.3-0.7-3.6-1.2l-1.5-0.5c-1.4-0.6-3-1.2-4.5-1.9c-7.3-3.2-15-7.5-17.8-9l-1.1-0.6
	c5.4-10.7,9.4-22.1,11.9-33.8c4.1-19.2,18.3-47,18.3-47l1.8-9.1l-34.3-4.6c-25.8-12.9-13.3-38.3-5.9-49.6c1.3-2,2.6-3.9,4.1-5.7
	l27.4,6c0,0,4.3,1.4,13.9,5.6l4.4,2c5.4,2.5,12,5.6,20,9.7C700.7,358.1,689.3,372.3,689.3,372.3z"/>
<path class="st12" d="M630.7,516.2c2.7,4.6,1.2,10.6-3.4,13.3c-2.2,1.3-4.8,1.7-7.3,1.1c-5.6-1.4-12.3-3.8-14.3-7.5
	c-3.7-6.8-1.8-35.2-1.8-35.2l4.8-7.1c0,0-2.5,31.3,3.4,34s18.5,1.3,18.5,1.3L630.7,516.2z"/>
<path class="st13" d="M635.5,119c-1.8,0.5-3.5,1.5-4.8,2.9c-1.8,2.1-2,5.1-3.2,7.6c-1.9,4-6,6.4-9.6,9s-7.3,6.1-7.3,10.6
	c0,6.3,7,10.3,9.3,16.2c2.2,5.5,0,11.6-1.2,17.4c-0.5,1.9-0.6,3.8-0.1,5.7c0.5,1.4,1.2,2.7,2.1,3.9c4.4,6,9.9,11.3,12.8,18.1
	c2.2,5.2,2.9,10.9,3.5,16.5c0.8,8.1,1.7,16.4,0.2,24.4c-0.1,0.5-0.1,1,0,1.5c0.3,0.5,0.7,0.8,1.2,1c11.9,5.8,26.3,0.8,32.1-11.1
	c0.1-0.3,0.3-0.6,0.4-0.9c2-4.5,2.8-10,6.7-12.9c0.5-0.4,1-0.6,1.6-0.7c0.9,0,1.8,0.3,2.6,0.9c5.1,2.8,11.4,2.9,17.1,1.7
	c3.5-0.7,7-1.9,9.3-4.6c4.5-5.4,2-13.4,2.3-20.4c0.2-5.6,2.4-11.5,0-16.6c-2.7-5.8-10.6-8.7-11.3-15c-0.4-3.8,2.1-7.2,3.2-10.9
	c2.6-8.7-2.8-17.6-7.9-25.1c-1.7-2.8-3.8-5.3-6.3-7.6c-2.3-1.8-4.9-3.2-7.6-4.2c-7.5-3.2-15.2-4.8-23-6.9
	C650,117.4,643.2,116.4,635.5,119z"/>
<path class="st9" d="M673.8,249.5h-26.5v-42.9c0.8-4.1,1.2-8.3,1.4-12.5c0-1.4,0-2.9,0-4.3c-0.3-5.1-1.3-10.2-4.1-13.4
	c-7.3-8.2,23.8-6.9,23.8-6.9c1,3.8,2.2,7.5,3.7,11.1c2.3,5.6,5.2,10.9,8.9,15.7c3.2,4.3,7.3,7.8,12.1,10.3
	C711.3,215.7,673.8,249.5,673.8,249.5z"/>
<g class="st6">
	<path d="M672,180.6c-5.5,7.2-14.5,10.7-23.4,9.1c-0.3-5.1-1.3-10.2-4.1-13.4c-7.3-8.2,23.8-6.9,23.8-6.9
		C669.3,173.3,670.5,177,672,180.6z"/>
</g>
<circle class="st9" cx="652.8" cy="164.5" r="24.2"/>
<path class="st9" d="M753.3,206.1c-1.2,6.3-2,12.7-2.3,19.2c-0.4,8.2-6.2,38.1-8.4,48.7c-0.5,2.8-2.4,5.1-5.1,6.2
	c-5.9,2.4-16.7,3.8-24-13.3c-4.1-9.4-7.4-19.1-9.9-29.1c-0.9-3.3-1.6-6.7-2-10.2l16-8.7c1.5,1.4,2.8,3,3.8,4.9
	c2.2,3.8,4.5,9.9,4,18.4l5,7.3c0,0,12.3-38.4,10-45.2s7.3-8.7,7.3-8.7s27-21,30.2-17.8S768.3,196.9,753.3,206.1z"/>
<path class="st9" d="M622.2,224.3c-1.2,3.6-2.7,7.1-4.3,10.5c-5.4,11.6-15.9,30-32.2,40.7c-25.1,16.4-19.6-16.9-19.6-16.9
	s6.2-39.6,7.3-43.4c1.8-5.9,0.9-15.1,0.9-15.1c-9.6-4.6-20.5-33.3-17.4-35.6s26,24.2,26,24.2s10.5,5,5,13.3s-3.2,44.8-3.2,44.8
	l10.6-14.6c2.4-6.1,5.5-11.8,9.4-17.1c2-2.7,3.4-4.4,3.4-4.4L622.2,224.3z"/>
<g class="st6">
	<path d="M721.4,223.7c-3.4,1.2-16.4,6.5-17.8,14c-0.9-3.3-1.6-6.7-2-10.2l16-8.7C719.1,220.3,720.4,221.9,721.4,223.7z"/>
</g>
<g class="st6">
	<path d="M622.2,224.3c-1.2,3.6-2.7,7.1-4.3,10.5c-0.6-4.5-3.2-16.1-13.3-19.8c2-2.7,3.4-4.4,3.4-4.4L622.2,224.3z"/>
</g>
<g class="st6">
	<path d="M673.8,249.5h-26.5v-42.9c0.8-4.1,1.2-8.3,1.4-12.5c5.5,5.3,4.1,13.4,4.1,13.4l14.2,32l6.9-28.3l-2.3-3.6l9.4-11.2
		c3.2,4.3,7.3,7.8,12.1,10.3C711.3,215.7,673.8,249.5,673.8,249.5z"/>
</g>
<g class="st6">
	<path d="M692.5,337.1c0,0-20.8-1.7-38.8-2.4l-1.8-0.1c-2.6-0.1-5-0.2-7.4-0.2c-17.5-0.4-37.3-6.5-40.6-7.6c1.3-2,2.6-3.8,4.1-5.7
		l27.4,6c0,0,4.3,1.4,13.9,5.6l-15.8-11.6l48,8.7c0,0,1.7-0.2,10.5,4.7L692.5,337.1z"/>
</g>
<path class="st14" d="M673.8,212.9l-2.3-3.6l10.1-12.1c0,0,20.9,10.3,26.4,8c0,0,13.3,11,13.7,17.4c0,0-19.2,6.4-18.7,16
	s-9.1,30.1-9.1,30.1l-4,16.4c-2.5,10-2.8,20.3-1,30.4l3.7,20.3c0,0-28.8-2.3-48-2.7c-19.2-0.5-41.1-7.8-41.1-7.8l11.2-23.6
	c4-8.5,6-17.9,5.8-27.3l-1-38.2c0,0-0.9-19.2-16-22.4c0,0,8.2-16.9,21-15.5c0,0,18.6-7.8,24.2-2.5c5.5,5.3,4.2,13.5,4.2,13.5
	l14.2,32L673.8,212.9z"/>
<g class="st6">
	<path d="M635.3,159.5c3.7,0,6.5-3.9,10.2-3.7c1.9,0.1,3.5,1.3,5.1,2.4c5.9,4.1,12.5,7.2,19.5,9c2.7,0.7,5.6,1.3,8.3,0.6
		s5.3-2.8,5.6-5.6c0.1-1.2-0.1-2.5-0.5-3.6c-3.1-10.7-10-19.9-19.5-25.8c-3.8-2.3-8.4-4.1-12.7-2.6c-3.8,1.3-6.3,4.9-9,7.8
		c-2.1,2.2-4.4,4.1-7,5.7c-2,1.2-5,2-6.2,4.2C627,152,630.4,159.5,635.3,159.5z"/>
</g>
<path class="st13" d="M635.3,158.6c3.7,0,6.5-3.9,10.2-3.7c1.9,0.1,3.5,1.3,5.1,2.4c5.9,4.1,12.5,7.2,19.5,9
	c2.7,0.7,5.6,1.3,8.3,0.6s5.3-2.8,5.6-5.6c0.1-1.2-0.1-2.5-0.5-3.6c-3.1-10.7-10-19.9-19.5-25.8c-3.8-2.3-8.4-4.1-12.7-2.6
	c-3.8,1.3-6.3,4.9-9,7.8c-2.1,2.2-4.4,4.1-7,5.7c-2,1.2-5,2-6.2,4.2C627,151.1,630.4,158.6,635.3,158.6z"/>
<path class="st15" d="M624.2,262.9c0,0,22.4,8.2,37,1.8l7.3,0.5c0,0,12.2,8.5,25,4.7"/>
<path class="st15" d="M730.2,249.2c0,0-3.7,8.7-1.8,11.4"/>
<path class="st15" d="M584.5,246.5c0,0,1.8,8.7,0,11.4"/>
<path class="st2" d="M963.3,444.3c0,0-41.8,41.8-18.2,103.9c23.6,62.1-40.5,165.3-40.5,165.3s0.7-0.1,2-0.3
	c85.9-15.2,128.6-113.4,80.8-186.5C969.6,499.6,955.1,467.8,963.3,444.3z"/>
<path class="st16" d="M963.3,445c0,0-41.8,41.8-18.2,103.9c23.6,62.1-40.5,165.3-40.5,165.3s0.7-0.1,2-0.3
	c85.9-15.2,128.6-113.4,80.8-186.5C969.6,500.3,955.1,468.5,963.3,445z"/>
<path class="st17" d="M963.3,444.3c0,0-23.6,51.3,0,93.1s4,159.3-58.7,176.1"/>
<path class="st2" d="M1037.8,613.5c0,0-47.7-7.6-52.1,35.2s-91.8,48.7-91.8,48.7l1.6,1.1c72.2,47.4,141.2,30.2,130.8-32.8
	C1022.5,642.3,1022.9,618.8,1037.8,613.5z"/>
<path class="st17" d="M1037.8,613.5c0,0-37.1,8.1-34,41.8s-55,74.1-109.9,42.1"/>
<path class="st18" d="M995.8,699c0,0-37.6-7.5-47.6-17.5s-55.2-27.6-60.2-15s-67.7,55.2-25.1,62.7s100.3,10,112.8,5
	S995.8,699,995.8,699z"/>
<path class="st19" d="M863,724.4c42.6,7.5,100.3,10,112.8,5c9.6-3.8,16.2-22.2,18.8-30.7l1.3,0.3c0,0-7.5,30.1-20.1,35.1
	s-70.2,2.5-112.8-5c-12.3-2.2-15.8-7.3-14.5-13.7C849.5,719.5,853.8,722.8,863,724.4z"/>
</svg>
